<svg width="264" height="65" viewBox="0 0 264 65" fill="none" xmlns="http://www.w3.org/2000/svg">
<path d="M80.066 23.4364C80.8944 21.9944 82.1216 20.7978 83.7478 19.8467C85.4046 18.8648 87.3222 18.3739 89.5006 18.3739C91.7403 18.3739 93.7653 18.9109 95.5755 19.9847C97.4164 21.0586 98.8585 22.5773 99.9017 24.541C100.945 26.4739 101.466 28.729 101.466 31.3063C101.466 33.8528 100.945 36.1233 99.9017 38.1176C98.8585 40.1119 97.4164 41.6613 95.5755 42.7659C93.7653 43.8704 91.7403 44.4227 89.5006 44.4227C87.3529 44.4227 85.4506 43.9471 83.7938 42.996C82.1677 42.0142 80.9251 40.8022 80.066 39.3602V55.9743H75.8779V18.7881H80.066V23.4364ZM97.1863 31.3063C97.1863 29.404 96.8028 27.7472 96.0358 26.3358C95.2687 24.9245 94.2256 23.8506 92.9062 23.1143C91.6176 22.3779 90.1909 22.0097 88.6262 22.0097C87.0921 22.0097 85.6654 22.3932 84.3461 23.1603C83.0574 23.8966 82.0143 24.9858 81.2165 26.4279C80.4495 27.8392 80.066 29.4807 80.066 31.3523C80.066 33.2545 80.4495 34.9267 81.2165 36.3687C82.0143 37.7801 83.0574 38.8693 84.3461 39.6363C85.6654 40.3727 87.0921 40.7409 88.6262 40.7409C90.1909 40.7409 91.6176 40.3727 92.9062 39.6363C94.2256 38.8693 95.2687 37.7801 96.0358 36.3687C96.8028 34.9267 97.1863 33.2392 97.1863 31.3063Z" fill="#DE492E"/>
<path d="M105.414 31.3063C105.414 28.729 105.936 26.4739 106.979 24.541C108.022 22.5773 109.449 21.0586 111.259 19.9847C113.1 18.9109 115.14 18.3739 117.38 18.3739C119.589 18.3739 121.507 18.8495 123.133 19.8006C124.759 20.7518 125.971 21.9484 126.769 23.3904V18.7881H131.003V44.0085H126.769V39.3142C125.94 40.7869 124.698 42.0142 123.041 42.996C121.415 43.9471 119.513 44.4227 117.334 44.4227C115.094 44.4227 113.069 43.8704 111.259 42.7659C109.449 41.6613 108.022 40.1119 106.979 38.1176C105.936 36.1233 105.414 33.8528 105.414 31.3063ZM126.769 31.3523C126.769 29.45 126.385 27.7932 125.618 26.3818C124.851 24.9705 123.808 23.8966 122.489 23.1603C121.2 22.3932 119.773 22.0097 118.209 22.0097C116.644 22.0097 115.217 22.3779 113.928 23.1143C112.64 23.8506 111.612 24.9245 110.845 26.3358C110.078 27.7472 109.694 29.404 109.694 31.3063C109.694 33.2392 110.078 34.9267 110.845 36.3687C111.612 37.7801 112.64 38.8693 113.928 39.6363C115.217 40.3727 116.644 40.7409 118.209 40.7409C119.773 40.7409 121.2 40.3727 122.489 39.6363C123.808 38.8693 124.851 37.7801 125.618 36.3687C126.385 34.9267 126.769 33.2545 126.769 31.3523Z" fill="#DE492E"/>
<path d="M142.268 22.8841C143.005 21.4421 144.048 20.3222 145.398 19.5245C146.778 18.7268 148.451 18.3279 150.414 18.3279V22.654H149.31C144.615 22.654 142.268 25.2006 142.268 30.2938V44.0085H138.08V18.7881H142.268V22.8841Z" fill="#DE492E"/>
<path d="M160.357 22.2398V37.1051C160.357 38.3324 160.618 39.2068 161.14 39.7284C161.661 40.2193 162.566 40.4647 163.855 40.4647H166.938V44.0085H163.165C160.833 44.0085 159.084 43.4715 157.918 42.3977C156.752 41.3238 156.169 39.5596 156.169 37.1051V22.2398H152.902V18.7881H156.169V12.437H160.357V18.7881H166.938V22.2398H160.357Z" fill="#DE492E"/>
<path d="M174.176 14.6921C173.378 14.6921 172.703 14.416 172.151 13.8637C171.599 13.3115 171.322 12.6365 171.322 11.8387C171.322 11.041 171.599 10.366 172.151 9.81376C172.703 9.26149 173.378 8.98535 174.176 8.98535C174.943 8.98535 175.587 9.26149 176.109 9.81376C176.661 10.366 176.937 11.041 176.937 11.8387C176.937 12.6365 176.661 13.3115 176.109 13.8637C175.587 14.416 174.943 14.6921 174.176 14.6921ZM176.201 18.7881V44.0085H172.013V18.7881H176.201Z" fill="#DE492E"/>
<path d="M181.774 31.3523C181.774 28.7443 182.295 26.4739 183.339 24.541C184.382 22.5773 185.824 21.0586 187.665 19.9847C189.536 18.9109 191.669 18.3739 194.062 18.3739C197.161 18.3739 199.707 19.1256 201.702 20.629C203.727 22.1324 205.061 24.2188 205.706 26.8881H201.195C200.766 25.354 199.922 24.1421 198.664 23.2523C197.437 22.3626 195.903 21.9177 194.062 21.9177C191.669 21.9177 189.736 22.7461 188.263 24.4029C186.79 26.029 186.054 28.3455 186.054 31.3523C186.054 34.3898 186.79 36.7369 188.263 38.3937C189.736 40.0505 191.669 40.8789 194.062 40.8789C195.903 40.8789 197.437 40.4494 198.664 39.5903C199.891 38.7312 200.735 37.504 201.195 35.9085H205.706C205.031 38.4858 203.681 40.5568 201.656 42.1215C199.631 43.6556 197.099 44.4227 194.062 44.4227C191.669 44.4227 189.536 43.8857 187.665 42.8119C185.824 41.738 184.382 40.2193 183.339 38.2557C182.295 36.292 181.774 33.9909 181.774 31.3523Z" fill="#DE492E"/>
<path d="M209.499 14.5541V10.7342H218.151V44.0085H213.917V14.5541H209.499Z" fill="#585CA6"/>
<path d="M224.24 14.5541V10.7342H232.893V44.0085H228.659V14.5541H224.24Z" fill="#585CA6"/>
<path d="M263.788 30.4318C263.788 31.2296 263.742 32.0733 263.65 32.9631H243.492C243.646 35.4483 244.489 37.3966 246.023 38.8079C247.588 40.1886 249.475 40.8789 251.684 40.8789C253.494 40.8789 254.998 40.4647 256.194 39.6363C257.422 38.7772 258.281 37.642 258.772 36.2307H263.282C262.607 38.6545 261.257 40.6335 259.232 42.1676C257.207 43.671 254.691 44.4227 251.684 44.4227C249.291 44.4227 247.143 43.8857 245.241 42.8119C243.369 41.738 241.897 40.2193 240.823 38.2557C239.749 36.2613 239.212 33.9602 239.212 31.3523C239.212 28.7443 239.734 26.4586 240.777 24.4949C241.82 22.5313 243.277 21.0279 245.149 19.9847C247.051 18.9109 249.23 18.3739 251.684 18.3739C254.077 18.3739 256.194 18.8955 258.035 19.9387C259.876 20.9819 261.288 22.4239 262.269 24.2648C263.282 26.075 263.788 28.1307 263.788 30.4318ZM259.462 29.5574C259.462 27.962 259.109 26.5966 258.403 25.4614C257.698 24.2955 256.731 23.4211 255.504 22.8381C254.307 22.2245 252.973 21.9177 251.5 21.9177C249.383 21.9177 247.573 22.5927 246.069 23.9427C244.597 25.2927 243.753 27.1642 243.538 29.5574H259.462Z" fill="#DE492E"/>
<path fill-rule="evenodd" clip-rule="evenodd" d="M16.8762 32.4798C16.8763 23.6435 24.0396 16.4802 32.876 16.4802H32.877V0.480469H32.8765C15.2037 0.480469 0.877035 14.8071 0.87697 32.4798H0.878067V64.4793H16.8778V32.4798H16.8762Z" fill="#585CA4"/>
<path fill-rule="evenodd" clip-rule="evenodd" d="M48.8785 0.480469L48.8785 16.0336L64.8782 16.0336L64.8782 0.480469H48.8785ZM32.8789 32.0337H32.8794C41.7158 32.0337 48.8792 24.8704 48.8792 16.0341L64.8783 16.0341C64.8781 33.7067 50.5516 48.0332 32.8789 48.0332L32.8789 32.0337Z" fill="#DE492E"/>
</svg>
